<svg width="26" height="26" viewBox="0 0 26 26" fill="none" xmlns="http://www.w3.org/2000/svg">
<path d="M2.20906 3.25C2.59164 2.40659 3.14631 1.86668 3.64084 1.52789C4.16805 1.16671 4.7606 1.60541 4.7606 2.24447V6C4.7606 6.55228 4.31289 7 3.7606 7H2.5824C2.11533 7 1.71351 6.67453 1.68789 6.20817C1.64829 5.48771 1.70154 4.36886 2.20906 3.25Z" stroke="#333333" stroke-width="1.5" stroke-linecap="round"/>
<path d="M23.3224 1H5.76062C5.20834 1 4.76062 1.44772 4.76062 2V7V23.4255C4.76062 24.1582 5.52255 24.6421 6.18573 24.3307L7.54363 23.6929C7.80466 23.5703 8.1059 23.5664 8.37005 23.6821L10.9623 24.8179C11.2264 24.9336 11.5277 24.9297 11.7887 24.8071L14.1466 23.6997C14.4159 23.5732 14.7275 23.5732 14.9968 23.6997L17.3404 24.8003C17.6097 24.9268 17.9213 24.9268 18.1906 24.8003L20.5449 23.6946C20.808 23.571 21.1119 23.5681 21.3773 23.6865L22.9151 24.3723C23.5765 24.6673 24.3224 24.1833 24.3224 23.459V2C24.3224 1.44772 23.8747 1 23.3224 1Z" fill="#333333" stroke="#333333" stroke-width="1.5" stroke-linecap="round"/>
<path d="M7.95441 11.5H13.9427M7.95441 5.72498H16.1451M18.7334 11.5H21.9271M18.7334 17.65H21.9271M7.95443 17.65H13.9427" stroke="#F5F5F5" stroke-width="1.5" stroke-linecap="round"/>
</svg>
